<svg width="24" height="19" viewBox="0 0 24 19" fill="none" xmlns="http://www.w3.org/2000/svg">
<path d="M1 4.53571L10.6433 10.735C11.045 10.9934 11.5171 11.1314 12 11.1314C12.4829 11.1314 12.955 10.9934 13.3567 10.735L23 4.53571L12 11.6071L1 4.53571ZM3.44444 17.5H20.5556C21.2039 17.5 21.8256 17.2517 22.284 16.8096C22.7425 16.3676 23 15.768 23 15.1429V3.35714C23 2.73199 22.7425 2.13244 22.284 1.69039C21.8256 1.24834 21.2039 1 20.5556 1H3.44444C2.79614 1 2.17438 1.24834 1.71596 1.69039C1.25754 2.13244 1 2.73199 1 3.35714V15.1429C1 15.768 1.25754 16.3676 1.71596 16.8096C2.17438 17.2517 2.79614 17.5 3.44444 17.5Z" stroke="#AAAAAA" stroke-width="1.7" stroke-linecap="round" stroke-linejoin="round"/>
</svg>
