<svg width="17" height="16" viewBox="0 0 17 16" fill="none" xmlns="http://www.w3.org/2000/svg">
<path d="M5.12404 4.13694C5.12404 2.37492 6.55092 0.948047 8.31293 0.948047C10.0749 0.948047 11.5018 2.37492 11.5018 4.13694C11.5018 5.89895 10.0749 7.32583 8.31293 7.32583C6.55092 7.32583 5.12404 5.89895 5.12404 4.13694ZM1.23516 12.8869C1.23516 12.4975 1.42468 12.1046 1.86015 11.7027C2.30038 11.2964 2.94366 10.9299 3.71092 10.6225C5.24657 10.0073 7.10252 9.69805 8.31293 9.69805C9.52334 9.69805 11.3793 10.0073 12.9149 10.6225C13.6822 10.9299 14.3255 11.2964 14.7657 11.7027C15.2012 12.1046 15.3907 12.4975 15.3907 12.8869V15.1036H1.23516V12.8869Z" stroke="#DC1E52" stroke-width="1.4"/>
</svg>
